
<svg xmlns="http://www.w3.org/2000/svg">
    <symbol id="user" viewBox="0 0 20 20">
        <path d="M3.33337 17.4999C3.33337 15.1987 6.31814 13.3333 10 13.3333C13.6819 13.3333 16.6667 15.1987 16.6667 17.4999" stroke="white" stroke-width="2" stroke-linecap="round" stroke-linejoin="round"/>
        <path d="M10 10.8333C12.3012 10.8333 14.1667 8.96785 14.1667 6.66667C14.1667 4.36548 12.3012 2.5 10 2.5C7.69885 2.5 5.83337 4.36548 5.83337 6.66667C5.83337 8.96785 7.69885 10.8333 10 10.8333Z" stroke="white" stroke-width="2" stroke-linecap="round" stroke-linejoin="round"/>
    </symbol>

    <symbol id="good" viewBox="0 0 48 48">
        <g clip-path="url(#clip0_1_109)">
        <path d="M46.7747 20.5631C46.277 19.8117 45.5226 19.2938 44.6455 19.0976C45.2113 18.0154 45.1882 16.6652 44.4675 15.5772C43.9548 14.8026 43.1814 14.3024 42.3395 14.1131C42.4896 13.8267 42.6006 13.5176 42.6669 13.1917C42.8507 12.2853 42.6713 11.3617 42.1604 10.5908C41.6627 9.83902 40.9083 9.32119 40.0312 9.12527C40.597 8.04312 40.574 6.6929 39.8533 5.60452C38.7997 4.01333 36.6471 3.57571 35.0555 4.62967L31.6095 6.91189C29.7726 5.98025 27.8188 5.31924 25.7911 4.94278C25.1503 3.96975 24.405 3.06521 23.5708 2.25662L22.1451 0.874905C21.1011 -0.137302 19.4637 -0.28928 18.2516 0.513821C16.8175 1.46341 16.4235 3.40286 17.373 4.83694C17.4104 4.8937 17.447 4.95083 17.4833 5.00796C12.8101 5.95352 8.55102 8.4335 5.39868 12.0674C1.97791 16.0111 0.09375 21.0619 0.09375 26.2892C0.09375 27.2912 0.162231 28.2949 0.297729 29.272C1.3418 36.8676 6.40137 43.4132 13.5015 46.355C16.1345 47.4463 18.9283 48 21.8042 48C26.3588 48 30.7185 46.6051 34.4125 43.9666C38.0262 41.3848 40.73 37.8219 42.2318 33.6632C42.3721 33.2758 42.171 32.8477 41.7836 32.7078C41.3957 32.5679 40.968 32.7686 40.8281 33.1564C39.4296 37.0291 36.9111 40.347 33.5446 42.7519C30.1055 45.2088 26.0457 46.5074 21.8042 46.5074C19.6113 46.5074 17.4701 46.1613 15.4208 45.4787L21.4933 41.4573C21.4937 41.4569 21.494 41.4569 21.4944 41.4566C21.4947 41.4566 21.4947 41.4562 21.4951 41.4558L26.5419 38.1138H26.5422C26.9952 37.8135 27.3047 37.355 27.4131 36.8222C27.5215 36.2893 27.416 35.7459 27.1157 35.2929L27.0491 35.1918L28.0294 34.5425C28.7289 34.0793 29.5701 33.8976 30.3984 34.0305C31.5978 34.2232 32.8158 33.9595 33.828 33.289L41.9593 27.9042C41.9037 28.6095 41.8121 29.3108 41.6843 30.0004C41.6089 30.4058 41.8766 30.7954 42.282 30.8705C42.3278 30.8793 42.3739 30.8833 42.4189 30.8833C42.7716 30.8833 43.0851 30.6321 43.1517 30.2729C43.3586 29.1599 43.4777 28.0199 43.5084 26.8784L45.7998 25.3609C46.5707 24.8504 47.0969 24.07 47.2808 23.164C47.465 22.2576 47.2852 21.334 46.7747 20.5631V20.5631ZM30.1604 7.87136L27.88 9.38162L27.431 8.17202C27.2435 7.66739 27.0286 7.17263 26.7905 6.6885C27.9474 6.98184 29.0739 7.37735 30.1604 7.87136ZM6.52624 13.0456C9.55591 9.55301 13.6827 7.20523 18.1974 6.39114C18.9218 8.14602 19.0953 10.1067 18.6625 11.9755L16.8428 19.8369C16.5568 19.5315 16.1854 19.3209 15.7672 19.236C15.234 19.1272 14.6909 19.2331 14.2379 19.5334L9.0835 22.9464C9.08313 22.9464 9.08313 22.9464 9.08276 22.9468C9.08276 22.9468 9.0824 22.9468 9.0824 22.9472L1.64832 27.8701C1.60767 27.3457 1.58643 26.8173 1.58643 26.2892C1.58643 21.4215 3.34094 16.7179 6.52624 13.0456V13.0456ZM25.9504 36.5244C25.9215 36.6665 25.8387 36.7892 25.7175 36.8694H25.7179L21.2853 39.8046L13.0583 27.5354C12.8287 27.193 12.3651 27.1018 12.0227 27.3314C11.6807 27.5611 11.5891 28.0243 11.8187 28.3667L20.0405 40.6289L13.7128 44.8195C7.42493 42.0692 2.92529 36.2611 1.84351 29.5027L9.28638 24.59L10.1429 25.8681C10.2872 26.0827 10.5231 26.1988 10.7637 26.1988C10.9065 26.1988 11.0511 26.1581 11.1786 26.0724C11.521 25.8428 11.6125 25.3792 11.3829 25.0368L10.5322 23.7678L15.0623 20.7777C15.1827 20.6975 15.3274 20.6697 15.4695 20.6986C15.6116 20.7276 15.7343 20.8103 15.8145 20.9312L25.8713 36.1172C25.9512 36.2377 25.9794 36.3824 25.9504 36.5244V36.5244ZM45.8181 22.8666C45.7134 23.3822 45.4142 23.8261 44.9755 24.1165L42.356 25.8512C42.3552 25.8516 42.3545 25.8523 42.3534 25.8527L33.0037 32.0446C32.3042 32.5078 31.463 32.6898 30.6346 32.5565C29.4357 32.3643 28.2176 32.6276 27.2051 33.2981L26.2247 33.9474L17.9879 21.5098L20.1171 12.3124C20.6653 9.94302 20.3763 7.44729 19.3319 5.2731C19.3224 5.25039 19.3121 5.22842 19.3004 5.20681C19.0997 4.79593 18.8719 4.39712 18.6174 4.0126C18.1223 3.2648 18.3278 2.25369 19.0759 1.75821C19.708 1.33963 20.562 1.41873 21.1062 1.94644L22.5319 3.32852C24.074 4.82376 25.2843 6.67825 26.0314 8.69168L26.8077 10.7831C26.8092 10.7871 26.8107 10.7904 26.8121 10.7941C26.814 10.7989 26.8162 10.804 26.818 10.8087C26.8235 10.8216 26.8286 10.8333 26.8341 10.8432C26.8491 10.8747 26.8656 10.9058 26.8854 10.9355C27.1132 11.2793 27.576 11.3734 27.9196 11.1457L35.8799 5.87442C36.7852 5.27493 38.0094 5.52359 38.6089 6.42886C39.2084 7.33413 38.9597 8.55838 38.0544 9.15786L37.3634 9.61563C37.3634 9.61563 37.363 9.61563 37.3627 9.61599L35.8213 10.637C35.8191 10.6385 35.8176 10.6399 35.8154 10.641C35.8066 10.6472 35.7982 10.6531 35.7913 10.659C35.4727 10.893 35.3903 11.3379 35.6111 11.6712C35.8385 12.015 36.3018 12.1092 36.6456 11.8814L38.1881 10.8596C38.6265 10.57 39.1512 10.4678 39.6665 10.5725C40.1818 10.6773 40.626 10.9765 40.916 11.4152C41.2064 11.8535 41.309 12.3791 41.2042 12.8943C41.0995 13.4099 40.8003 13.8538 40.3616 14.1442L38.1284 15.6233C37.7845 15.8507 37.6904 16.3136 37.9182 16.6575C38.0618 16.8743 38.2991 16.9918 38.5411 16.9918C38.6825 16.9918 38.8257 16.9516 38.9524 16.8677L39.2981 16.6388L40.4941 15.8467C41.3998 15.2472 42.6237 15.4959 43.2231 16.4011C43.8226 17.3068 43.574 18.5307 42.6687 19.1305L41.5532 19.8692C41.5474 19.8728 41.5415 19.8769 41.5356 19.8809L40.4355 20.6093C40.0917 20.8367 39.9976 21.3 40.2253 21.6438C40.3689 21.8606 40.6062 21.9782 40.8483 21.9782C40.9896 21.9782 41.1328 21.9379 41.2595 21.854L41.6052 21.6251C41.6052 21.6251 41.6052 21.6248 41.6056 21.6248L42.8016 20.833C43.24 20.5426 43.7651 20.4401 44.2808 20.5452C44.7964 20.6496 45.2402 20.9491 45.5306 21.3875C45.8207 21.8258 45.9228 22.3513 45.8181 22.8666V22.8666Z" fill="white"/>
        </g>
        <defs>
        <clipPath id="clip0_1_109">
        <rect width="48" height="48" fill="white"/>
        </clipPath>
        </defs>    
    </symbol>

    <symbol id="edu" viewBox="0 0 48 48" >
        <g clip-path="url(#clip0_1_114)">
        <path d="M46.866 16.8082L25.3575 8.69834C24.4822 8.36824 23.518 8.36824 22.6426 8.69834L16.0769 11.1739C16.0769 11.1739 17.2634 2.87628 17.2653 2.67349C17.2713 2.08521 16.9196 1.25478 15.2114 0.640057C14.1094 0.243494 12.6554 0.0166192 11.1163 0.00124421H11.1035C11.0988 0.00115046 11.0891 0.000962957 11.086 0.000962957C8.14422 -0.029037 4.97687 0.742525 4.91912 2.50212C4.84694 4.30034 5.32441 6.25334 5.52297 8.04246C5.62328 8.94602 7.02091 8.79096 6.92059 7.8874L6.53462 4.40937C7.71484 4.93596 8.88306 5.12796 10.1639 5.19846V21.9282H8.47881L7.34659 11.7254C7.24628 10.822 5.84866 10.9769 5.94897 11.8805L6.28047 14.8676L1.13406 16.8081C-0.347096 17.3666 -0.347096 19.5294 1.13406 20.0877L6.67084 22.1755C5.17722 23.0512 5.48284 25.6516 7.24028 25.9926L4.49659 45.2498C4.14147 47.7393 9.26959 48 10.7682 48C12.1975 48 17.0593 47.7832 16.7709 45.3734L15.3519 33.5717C21.6517 35.9219 28.5243 35.3839 34.5836 32.5759V37.7844C33.3939 38.0965 32.5136 39.1807 32.5136 40.4669V44.572C32.5136 44.9603 32.8284 45.2751 33.2167 45.2751H37.3567C37.745 45.2751 38.0598 44.9603 38.0598 44.572V40.4669C38.0598 39.1807 37.1795 38.0965 35.9898 37.7844V31.8802C36.6781 31.518 37.3628 31.1264 38.0435 30.704C38.2503 30.5757 38.3759 30.3498 38.3759 30.1065V23.289L46.866 20.0878C48.3471 19.5295 48.3471 17.3666 46.866 16.8082V16.8082ZM36.6536 40.467V43.8689H33.9198V40.467C33.9198 39.7133 34.5331 39.1001 35.2867 39.1001C36.0404 39.1001 36.6536 39.7133 36.6536 40.467V40.467ZM11.5699 21.9283V5.2159C12.8488 5.17709 14.3471 5.01181 15.5412 4.52956L14.5287 12.1482C14.5284 12.1503 14.5281 12.1524 14.5278 12.1544L13.2227 21.9283H11.5699ZM15.8595 2.65624C15.5413 3.62506 12.1106 3.82718 11.072 3.8164C10.2009 3.8074 6.01075 3.37606 6.32519 2.5624C6.68744 1.62518 10.4832 1.39531 11.1031 1.4074C11.9462 1.41574 15.6874 1.75006 15.8595 2.65624ZM1.40622 18.4481C1.40622 18.376 1.42797 18.2002 1.63009 18.124L6.4405 16.3102L6.93569 20.7726L1.63009 18.7721C1.42797 18.6959 1.40622 18.5201 1.40622 18.4481V18.4481ZM7.63816 23.3909C9.79928 23.3909 11.9611 23.3695 14.1221 23.3909C14.8461 23.3981 14.7902 24.6968 14.1092 24.6891H7.63281C6.93569 24.689 6.93569 23.3909 7.63816 23.3909V23.3909ZM5.89975 45.3712L8.65375 26.041L10.1227 26.0556V46.5699C7.63816 46.4289 6.00569 45.7031 5.89975 45.3712V45.3712ZM11.529 46.5838V26.0696L13.0353 26.0846L15.3653 45.4628C15.2482 45.7971 14.0118 46.4925 11.529 46.5838V46.5838ZM46.3698 18.7721L32.859 23.8663C32.0205 24.1825 32.5359 25.4912 33.3551 25.1821L36.9696 23.8193V29.7127C30.3608 33.7069 22.4289 34.9552 15.1614 31.9878L14.4495 26.0668C14.8567 25.9983 15.2175 25.8037 15.496 25.5031L22.6426 28.1978C23.5007 28.5212 24.4984 28.5236 25.3578 28.1976L29.5012 26.6352C30.3518 26.3145 29.8557 24.9986 29.0051 25.3195L24.8613 26.8819C24.3058 27.0914 23.694 27.0913 23.1385 26.8819L16.0471 24.2081C16.1268 23.2573 15.5839 22.2918 14.6314 22.0485L15.8664 12.7559L23.1385 10.014C23.694 9.80468 24.3057 9.80468 24.8612 10.014L33.9841 13.4538L23.6443 17.7998C22.8193 18.1466 23.379 19.4366 24.1893 19.0961L35.8971 14.1752L46.3698 18.124C46.6669 18.236 46.6669 18.6601 46.3698 18.7721V18.7721Z" fill="white"/>
        </g>
        <defs>
        <clipPath id="clip0_1_114">
        <rect width="48" height="48" fill="white"/>
        </clipPath>
        </defs>
    </symbol>

    <symbol id="place" viewBox="0 0 48 48">
        <g clip-path="url(#clip0_1_124)">
            <path d="M13.7733 8.98832C13.5119 9.79579 13.7874 10.6388 14.475 11.1361L18.5502 14.0834L16.9892 18.8522C16.7249 19.6597 16.9983 20.5042 17.6856 21.0036C18.3729 21.5029 19.2605 21.5021 19.947 21.0012L24 18.0429L28.0531 21.0013C28.3968 21.2521 28.791 21.3776 29.1853 21.3776C29.5782 21.3776 29.9713 21.253 30.3144 21.0037C31.0017 20.5043 31.2751 19.6598 31.0108 18.8523L29.4498 14.0835L33.525 11.1363C34.2127 10.6389 34.4881 9.79588 34.2267 8.98841C33.9653 8.18104 33.2481 7.65923 32.3993 7.65923H27.3683L25.8277 2.89335C25.5665 2.08551 24.8491 1.56342 24 1.56342C23.1509 1.56342 22.4335 2.08542 22.1723 2.89335L20.6318 7.65923H15.6007C14.7519 7.65913 14.0347 8.18085 13.7733 8.98832V8.98832ZM21.3141 9.53413C21.7208 9.53413 22.081 9.27191 22.2062 8.88501L23.9566 3.47001C23.9617 3.45417 23.9664 3.44676 23.9677 3.44545C23.9796 3.43598 24.0206 3.43588 24.0323 3.44535C24.0337 3.44676 24.0384 3.45417 24.0435 3.47001L25.7939 8.88501C25.9191 9.27191 26.2793 9.53413 26.686 9.53413H32.3993C32.4159 9.53413 32.4246 9.53638 32.4261 9.53713C32.4388 9.54548 32.4515 9.58457 32.446 9.59854C32.4452 9.60023 32.4396 9.60716 32.4262 9.61673L27.7965 12.965C27.4662 13.2039 27.3281 13.6289 27.4549 14.0163L29.2288 19.4355C29.234 19.4513 29.2345 19.4602 29.2342 19.4618C29.2304 19.4764 29.2011 19.503 29.182 19.4998C29.1801 19.4995 29.1718 19.4963 29.1584 19.4865L24.5527 16.1249C24.388 16.0048 24.194 15.9447 23.9999 15.9447C23.8058 15.9447 23.6118 16.0048 23.4472 16.1249L18.8415 19.4864C18.828 19.4962 18.8198 19.4995 18.818 19.4998C18.8069 19.4979 18.7695 19.4765 18.7656 19.462C18.7653 19.4601 18.7659 19.4513 18.771 19.4355L20.5449 14.0163C20.6718 13.6289 20.5337 13.2039 20.2033 12.965L15.5737 9.61673C15.5603 9.60707 15.5546 9.60013 15.5538 9.59873C15.5484 9.58457 15.561 9.54548 15.5737 9.53723C15.5754 9.53638 15.5839 9.53413 15.6005 9.53413H21.3141Z" fill="white"/>
            <path d="M24.8815 30.5625H23.1182C22.6005 30.5625 22.1807 30.9823 22.1807 31.5C22.1807 32.0177 22.6005 32.4375 23.1182 32.4375H23.944V39.75C23.944 40.2677 24.3638 40.6875 24.8815 40.6875C25.3992 40.6875 25.819 40.2677 25.819 39.75V31.5C25.819 30.9822 25.3993 30.5625 24.8815 30.5625Z" fill="white"/>
            <path d="M30.2344 5.00172C30.4744 5.00172 30.7142 4.91013 30.8973 4.72713L34.0241 1.60028C34.3902 1.23419 34.3902 0.640565 34.0241 0.274378C33.6579 -0.0916221 33.0645 -0.0916221 32.6982 0.274378L29.5714 3.40122C29.2053 3.76731 29.2053 4.36094 29.5714 4.72713C29.7546 4.91022 29.9944 5.00172 30.2344 5.00172V5.00172Z" fill="white"/>
            <path d="M17.0091 4.72725C17.1922 4.91025 17.4321 5.00184 17.672 5.00184C17.9119 5.00184 18.1518 4.91025 18.3349 4.72725C18.701 4.36116 18.701 3.76753 18.3349 3.40134L15.2081 0.2745C14.842 -0.0915 14.2485 -0.0915 13.8822 0.2745C13.5161 0.640594 13.5161 1.23422 13.8822 1.60041L17.0091 4.72725Z" fill="white"/>
            <path d="M32.8699 15.1785C32.6463 15.6453 32.8434 16.2052 33.3104 16.429L36.7623 18.0828C36.8929 18.1455 37.0307 18.175 37.1666 18.175C37.5162 18.175 37.8516 17.9786 38.0127 17.6423C38.2364 17.1754 38.0392 16.6155 37.5722 16.3918L34.1204 14.7379C33.6538 14.5143 33.0937 14.7115 32.8699 15.1785V15.1785Z" fill="white"/>
            <path d="M10.8333 18.175C10.969 18.175 11.107 18.1454 11.2376 18.0829L14.6895 16.429C15.1564 16.2052 15.3536 15.6455 15.1299 15.1785C14.9061 14.7114 14.3463 14.5144 13.8794 14.7381L10.4275 16.3919C9.96054 16.6157 9.76338 17.1755 9.98707 17.6424C10.1482 17.9787 10.4837 18.175 10.8333 18.175V18.175Z" fill="white"/>
            <path d="M47.0625 30.375H33.9375V25.125H35.3438C35.8614 25.125 36.2812 24.7052 36.2812 24.1875C36.2812 23.6698 35.8614 23.25 35.3438 23.25H12.6562C12.1386 23.25 11.7188 23.6698 11.7188 24.1875C11.7188 24.7052 12.1386 25.125 12.6562 25.125H14.0625V30.375H0.9375C0.419813 30.375 0 30.7948 0 31.3125V47.0625C0 47.5802 0.419813 48 0.9375 48H47.0625C47.5802 48 48 47.5802 48 47.0625V31.3125C48 30.7947 47.5802 30.375 47.0625 30.375ZM1.875 32.25H14.0625V46.125H1.875V32.25ZM46.125 46.125H33.9375V43.4062C33.9375 42.8886 33.5177 42.4688 33 42.4688C32.4823 42.4688 32.0625 42.8886 32.0625 43.4062V46.125H15.9375V25.125H32.0625V34.9688C32.0625 35.4864 32.4823 35.9062 33 35.9062C33.5177 35.9062 33.9375 35.4864 33.9375 34.9688V32.25H46.125V46.125Z" fill="white"/>
            <path d="M33 38.25C32.7534 38.25 32.5116 38.3502 32.3372 38.5247C32.1628 38.6992 32.0625 38.9409 32.0625 39.1875C32.0625 39.4341 32.1627 39.6759 32.3372 39.8502C32.5116 40.0246 32.7534 40.125 33 40.125C33.2466 40.125 33.4884 40.0247 33.6627 39.8502C33.8372 39.6759 33.9375 39.4341 33.9375 39.1875C33.9375 38.9409 33.8372 38.6991 33.6627 38.5247C33.4884 38.3502 33.2466 38.25 33 38.25Z" fill="white"/>
        </g>
        <defs>
            <clipPath id="clip0_1_124">
                <rect fill="white"/>
            </clipPath>
        </defs>
    </symbol>

    <symbol id="back" viewBox="0 0 24 24">
        <path d="M21 12L3 12" stroke="#14181F" stroke-width="2" stroke-linecap="round" stroke-linejoin="round"/>
        <path d="M8 17L3 12L8 7" stroke="#14181F" stroke-width="2" stroke-linecap="round" stroke-linejoin="round"/>
    </symbol>

    <symbol id="next" viewBox="0 0 24 24">
        <path d="M3 12H21" stroke="#14181F" stroke-width="2" stroke-linecap="round" stroke-linejoin="round"/>
        <path d="M16 7L21 12L16 17" stroke="#14181F" stroke-width="2" stroke-linecap="round" stroke-linejoin="round"/>
    </symbol>

    <symbol id="play" viewBox="0 0 86 86">
        <path fill-rule="evenodd" clip-rule="evenodd" d="M0.5 43.0246C0.5 19.5666 19.5758 0.5 43 0.5C66.4242 0.5 85.5 19.5666 85.5 43.0246C85.5 66.4334 66.4242 85.5 43 85.5C19.5758 85.5 0.5 66.4334 0.5 43.0246ZM58.5888 47.3259C59.0401 46.8748 59.6144 46.1778 59.7374 46.0137C60.3938 45.1527 60.722 44.0866 60.722 43.0246C60.722 41.8314 60.3528 40.7243 59.6554 39.8222C59.5983 39.7651 59.4864 39.6433 59.3405 39.4846C59.0677 39.1876 58.6759 38.7612 58.3016 38.3871C54.9377 34.7788 46.1588 28.8743 41.5642 27.0702C40.8668 26.7873 39.1028 26.1681 38.1593 26.1271C37.2568 26.1271 36.3953 26.3321 35.5748 26.7422C34.5492 27.3162 33.7288 28.2183 33.2775 29.2844C32.9903 30.0224 32.5391 32.2366 32.5391 32.2776C32.0878 34.6968 31.8417 38.6331 31.8417 42.9795C31.8417 47.1249 32.0878 50.8932 32.457 53.3534C32.4672 53.3635 32.5025 53.5394 32.5573 53.8128C32.724 54.6438 33.0712 56.375 33.4416 57.0847C34.3441 58.8068 36.1081 59.8729 37.9952 59.8729H38.1593C39.39 59.8319 41.9744 58.7658 41.9744 58.7248C46.3229 56.9206 54.8967 51.3032 58.3427 47.5719L58.5888 47.3259Z" fill="white"/>
    </symbol>

    <symbol id="tel" viewBox="0 0 24 24">
        <path d="M7.64593 3H4.89474C3.8483 3 3 3.8483 3 4.89474C3 13.7894 10.2106 21 19.1053 21C20.1517 21 21 20.1517 21 19.1053V16.3541C21 15.5363 20.5021 14.8008 19.7428 14.4971L17.1071 13.4428C16.4251 13.17 15.6483 13.2931 15.084 13.7634L14.4031 14.3307C13.6084 14.993 12.44 14.94 11.7085 14.2085L9.79148 12.2915C9.06004 11.56 9.00704 10.3916 9.66925 9.5969L10.2366 8.91603C10.7069 8.35169 10.83 7.57495 10.5572 6.89288L9.50289 4.25722C9.19916 3.4979 8.46374 3 7.64593 3Z" stroke="#161A1F" stroke-width="1.5" stroke-linecap="round" stroke-linejoin="round"/>
    </symbol>

    <symbol id="mail" viewBox="0 0 24 24">
        <path d="M20 5H4C3.44772 5 3 5.44772 3 6V18C3 18.5523 3.44772 19 4 19H20C20.5523 19 21 18.5523 21 18V6C21 5.44772 20.5523 5 20 5Z" stroke="#161A1F" stroke-width="1.5" stroke-linecap="round" stroke-linejoin="round"/>
        <path d="M3 6L12.2571 13L21 6" stroke="#161A1F" stroke-width="1.5" stroke-linecap="round" stroke-linejoin="round"/>
    </symbol>

    <symbol id="inst" viewBox="0 0 18 18">
        <g clip-path="url(#clip0_1_58)">
        <path d="M9 1.6207C11.4047 1.6207 11.6895 1.63125 12.6352 1.67344C13.5141 1.71211 13.9887 1.85977 14.3051 1.98281C14.7234 2.14453 15.0258 2.34141 15.3387 2.6543C15.6551 2.9707 15.8484 3.26953 16.0102 3.68789C16.1332 4.0043 16.2809 4.48242 16.3195 5.35781C16.3617 6.30703 16.3723 6.5918 16.3723 8.99297C16.3723 11.3977 16.3617 11.6824 16.3195 12.6281C16.2809 13.507 16.1332 13.9816 16.0102 14.298C15.8484 14.7164 15.6516 15.0188 15.3387 15.3316C15.0223 15.648 14.7234 15.8414 14.3051 16.0031C13.9887 16.1262 13.5105 16.2738 12.6352 16.3125C11.6859 16.3547 11.4012 16.3652 9 16.3652C6.59531 16.3652 6.31055 16.3547 5.36484 16.3125C4.48594 16.2738 4.01133 16.1262 3.69492 16.0031C3.27656 15.8414 2.97422 15.6445 2.66133 15.3316C2.34492 15.0152 2.15156 14.7164 1.98984 14.298C1.8668 13.9816 1.71914 13.5035 1.68047 12.6281C1.63828 11.6789 1.62773 11.3941 1.62773 8.99297C1.62773 6.58828 1.63828 6.30352 1.68047 5.35781C1.71914 4.47891 1.8668 4.0043 1.98984 3.68789C2.15156 3.26953 2.34844 2.96719 2.66133 2.6543C2.97773 2.33789 3.27656 2.14453 3.69492 1.98281C4.01133 1.85977 4.48945 1.71211 5.36484 1.67344C6.31055 1.63125 6.59531 1.6207 9 1.6207ZM9 0C6.55664 0 6.25078 0.0105469 5.29102 0.0527344C4.33477 0.0949219 3.67734 0.249609 3.10781 0.471094C2.51367 0.703125 2.01094 1.00898 1.51172 1.51172C1.00898 2.01094 0.703125 2.51367 0.471094 3.1043C0.249609 3.67734 0.0949219 4.33125 0.0527344 5.2875C0.0105469 6.25078 0 6.55664 0 9C0 11.4434 0.0105469 11.7492 0.0527344 12.709C0.0949219 13.6652 0.249609 14.3227 0.471094 14.8922C0.703125 15.4863 1.00898 15.9891 1.51172 16.4883C2.01094 16.9875 2.51367 17.2969 3.1043 17.5254C3.67734 17.7469 4.33125 17.9016 5.2875 17.9438C6.24727 17.9859 6.55312 17.9965 8.99648 17.9965C11.4398 17.9965 11.7457 17.9859 12.7055 17.9438C13.6617 17.9016 14.3191 17.7469 14.8887 17.5254C15.4793 17.2969 15.982 16.9875 16.4813 16.4883C16.9805 15.9891 17.2898 15.4863 17.5184 14.8957C17.7398 14.3227 17.8945 13.6688 17.9367 12.7125C17.9789 11.7527 17.9895 11.4469 17.9895 9.00352C17.9895 6.56016 17.9789 6.2543 17.9367 5.29453C17.8945 4.33828 17.7398 3.68086 17.5184 3.11133C17.2969 2.51367 16.991 2.01094 16.4883 1.51172C15.9891 1.0125 15.4863 0.703125 14.8957 0.474609C14.3227 0.253125 13.6688 0.0984375 12.7125 0.05625C11.7492 0.0105469 11.4434 0 9 0Z" fill="white"/>
        <path d="M9 4.37695C6.44766 4.37695 4.37695 6.44766 4.37695 9C4.37695 11.5523 6.44766 13.623 9 13.623C11.5523 13.623 13.623 11.5523 13.623 9C13.623 6.44766 11.5523 4.37695 9 4.37695ZM9 11.9988C7.34414 11.9988 6.00117 10.6559 6.00117 9C6.00117 7.34414 7.34414 6.00117 9 6.00117C10.6559 6.00117 11.9988 7.34414 11.9988 9C11.9988 10.6559 10.6559 11.9988 9 11.9988Z" fill="white"/>
        <path d="M14.8852 4.19417C14.8852 4.79182 14.4 5.27346 13.8059 5.27346C13.2082 5.27346 12.7266 4.78831 12.7266 4.19417C12.7266 3.59651 13.2117 3.11487 13.8059 3.11487C14.4 3.11487 14.8852 3.60003 14.8852 4.19417Z" fill="white"/>
        </g>
        <defs>
        <clipPath id="clip0_1_58">
        <rect width="18" height="18" fill="white"/>
        </clipPath>
        </defs>
    </symbol>

    <symbol id="ytb" viewBox="0 0 18 18">
        <path d="M17.8207 5.39998C17.8207 5.39998 17.6449 4.15896 17.1035 3.61404C16.418 2.89685 15.6516 2.89333 15.3 2.85115C12.7828 2.66833 9.00352 2.66833 9.00352 2.66833H8.99648C8.99648 2.66833 5.21719 2.66833 2.7 2.85115C2.34844 2.89333 1.58203 2.89685 0.896484 3.61404C0.355078 4.15896 0.182812 5.39998 0.182812 5.39998C0.182812 5.39998 0 6.85896 0 8.31443V9.67849C0 11.134 0.179297 12.5929 0.179297 12.5929C0.179297 12.5929 0.355078 13.834 0.892969 14.3789C1.57852 15.0961 2.47852 15.0715 2.8793 15.1488C4.3207 15.2859 9 15.3281 9 15.3281C9 15.3281 12.7828 15.3211 15.3 15.1418C15.6516 15.0996 16.418 15.0961 17.1035 14.3789C17.6449 13.834 17.8207 12.5929 17.8207 12.5929C17.8207 12.5929 18 11.1375 18 9.67849V8.31443C18 6.85896 17.8207 5.39998 17.8207 5.39998ZM7.14023 11.3344V6.27537L12.0023 8.81365L7.14023 11.3344Z" fill="white"/>
    </symbol>

    <symbol id="disc" viewBox="0 0 18 18">
        <path d="M15.2378 3.11668C14.0905 2.59027 12.8602 2.20243 11.5739 1.9803C11.5505 1.97601 11.5271 1.98673 11.515 2.00816C11.3568 2.28957 11.1815 2.65669 11.0588 2.94525C9.6753 2.73812 8.29889 2.73812 6.94374 2.94525C6.82099 2.65028 6.63936 2.28957 6.48043 2.00816C6.46836 1.98744 6.44496 1.97673 6.42154 1.9803C5.13593 2.20172 3.90567 2.58956 2.7577 3.11668C2.74776 3.12096 2.73924 3.12811 2.73359 3.13739C0.400044 6.62366 -0.239213 10.0242 0.0743851 13.3827C0.075804 13.3991 0.0850274 13.4148 0.0977985 13.4248C1.63741 14.5555 3.12878 15.2419 4.59246 15.6968C4.61588 15.704 4.6407 15.6954 4.65561 15.6761C5.00184 15.2033 5.31048 14.7048 5.57511 14.1805C5.59072 14.1498 5.57582 14.1133 5.5439 14.1012C5.05435 13.9155 4.5882 13.6891 4.1398 13.4319C4.10433 13.4112 4.10149 13.3605 4.13412 13.3362C4.22848 13.2655 4.32286 13.1919 4.41297 13.1177C4.42927 13.1041 4.45198 13.1012 4.47115 13.1098C7.41696 14.4548 10.6062 14.4548 13.5172 13.1098C13.5364 13.1005 13.5591 13.1034 13.5761 13.1169C13.6662 13.1912 13.7606 13.2655 13.8557 13.3362C13.8883 13.3605 13.8862 13.4112 13.8507 13.4319C13.4023 13.6941 12.9361 13.9155 12.4459 14.1005C12.414 14.1126 12.3998 14.1498 12.4154 14.1805C12.6857 14.704 12.9943 15.2026 13.3342 15.6754C13.3484 15.6954 13.3739 15.704 13.3973 15.6968C14.8681 15.2419 16.3595 14.5555 17.8991 13.4248C17.9126 13.4148 17.9211 13.3998 17.9225 13.3834C18.2978 9.50067 17.2939 6.12798 15.2612 3.1381C15.2562 3.12811 15.2477 3.12096 15.2378 3.11668ZM6.01502 11.3377C5.12812 11.3377 4.39735 10.5235 4.39735 9.52354C4.39735 8.52358 5.11395 7.70934 6.01502 7.70934C6.92315 7.70934 7.64686 8.53072 7.63266 9.52354C7.63266 10.5235 6.91606 11.3377 6.01502 11.3377ZM11.9961 11.3377C11.1092 11.3377 10.3784 10.5235 10.3784 9.52354C10.3784 8.52358 11.095 7.70934 11.9961 7.70934C12.9042 7.70934 13.6279 8.53072 13.6137 9.52354C13.6137 10.5235 12.9042 11.3377 11.9961 11.3377Z" fill="white"/>
    </symbol>

    <symbol id="vk" viewBox="0 0 18 18">
        <g clip-path="url(#clip0_1_75)">
        <path fill-rule="evenodd" clip-rule="evenodd" d="M1.2653 1.2653C0 2.5306 0 4.56705 0 8.64V9.36C0 13.433 0 15.4694 1.2653 16.7347C2.5306 18 4.56705 18 8.64 18H9.36C13.433 18 15.4694 18 16.7347 16.7347C18 15.4694 18 13.433 18 9.36V8.64C18 4.56705 18 2.5306 16.7347 1.2653C15.4694 0 13.433 0 9.36 0H8.64C4.56705 0 2.5306 0 1.2653 1.2653ZM3.03754 5.47504C3.13504 10.155 5.47504 12.9675 9.57754 12.9675H9.81007V10.29C11.3176 10.44 12.4575 11.5425 12.915 12.9675H15.045C14.46 10.8375 12.9225 9.66004 11.9625 9.21004C12.9225 8.65504 14.2725 7.30504 14.595 5.47504H12.6599C12.2399 6.96004 10.9951 8.31004 9.81007 8.43754V5.47504H7.875V10.665C6.675 10.365 5.16004 8.91004 5.09254 5.47504H3.03754Z" fill="white"/>
        </g>
        <defs>
        <clipPath id="clip0_1_75">
        <rect width="18" height="18" fill="white"/>
        </clipPath>
        </defs>
    </symbol>

    <symbol id="before_pages" viewBox="0 0 20 20">
        <path d="M17.5 10L2.5 10" stroke="white" stroke-width="2" stroke-linecap="round" stroke-linejoin="round"/>
        <path d="M6.66667 14.1666L2.5 9.99998L6.66667 5.83331" stroke="white" stroke-width="2" stroke-linecap="round" stroke-linejoin="round"/>
    </symbol>

    <symbol id="next_pages" viewBox="0 0 20 20">
        <path d="M2.5 10L17.5 10" stroke="white" stroke-width="2" stroke-linecap="round" stroke-linejoin="round"/>
        <path d="M13.3333 14.1666L17.5 9.99998L13.3333 5.83331" stroke="white" stroke-width="2" stroke-linecap="round" stroke-linejoin="round"/>
    </symbol>

    <symbol id="fb" viewBox="0 0 20 20">
        <path d="M20 10.0611C20 4.50451 15.5229 0 10 0C4.47715 0 0 4.50451 0 10.0611C0 15.0828 3.65684 19.2452 8.4375 20V12.9694H5.89844V10.0611H8.4375V7.84452C8.4375 5.32296 9.93047 3.93012 12.2146 3.93012C13.3084 3.93012 14.4531 4.12663 14.4531 4.12663V6.60261H13.1922C11.95 6.60261 11.5625 7.37822 11.5625 8.17465V10.0611H14.3359L13.8926 12.9694H11.5625V20C16.3432 19.2452 20 15.0828 20 10.0611Z" fill="white"/>
    </symbol>

    <symbol id="google" viewBox="0 0 20 20">
        <path fill-rule="evenodd" clip-rule="evenodd" d="M14.1149 5.45704C13.0615 4.47232 11.6559 3.93587 10.2015 3.95791C7.54006 3.95791 5.27973 5.7179 4.4738 8.08782C4.04648 9.32973 4.04648 10.6746 4.4738 11.9165H4.47754C5.28721 14.2828 7.54379 16.0428 10.2052 16.0428C11.579 16.0428 12.7585 15.6983 13.6726 15.0899V15.0875C14.7484 14.3893 15.4831 13.2907 15.7117 12.0488H10.2015V8.19811H19.8238C19.9438 8.86684 20 9.55026 20 10.23C20 13.2714 18.8911 15.8428 16.9617 17.5844L16.9637 17.586C15.2731 19.1145 12.9528 20 10.2015 20C6.34428 20 2.81697 17.8689 1.08517 14.4922C-0.361728 11.6667 -0.361724 8.33772 1.08518 5.51218C2.81698 2.1318 6.34428 0.000673865 10.2015 0.000673865C12.7354 -0.0287207 15.1832 0.904556 17.0274 2.60209L14.1149 5.45704Z" fill="white"/>
    </symbol>

    <symbol id="chat" viewBox="0 0 24 24">
        <path d="M15 10C15 13.3137 12.3137 16 9 16C7.81929 16 6.71824 15.659 5.78998 15.07L3 16L3.92999 13.21C3.34104 12.2818 3 11.1807 3 10C3 6.68629 5.68629 4 9 4C12.3137 4 15 6.68629 15 10Z" stroke="#161A1F" stroke-width="1.4" stroke-linecap="round" stroke-linejoin="round"/>
        <path d="M9.33789 15.9896C10.1586 18.3254 12.3838 20 15.0001 20C16.1808 20 17.2819 19.659 18.2101 19.07L21.0001 20L20.0701 17.21L20.2122 16.9744C20.7136 16.0977 21.0001 15.0823 21.0001 14C21.0001 10.6863 18.3138 8 15.0001 8L14.7752 8.00414L14.6623 8.01014" stroke="#161A1F" stroke-width="1.4" stroke-linecap="round" stroke-linejoin="round"/>
    </symbol>

    <symbol id="card" viewBox="0 0 24 24">
        <path d="M20 5H4C3.44772 5 3 5.44772 3 6V18C3 18.5523 3.44772 19 4 19H20C20.5523 19 21 18.5523 21 18V6C21 5.44772 20.5523 5 20 5Z" stroke="#161A1F" stroke-width="1.4" stroke-linecap="round" stroke-linejoin="round"/>
        <path d="M7 15H11" stroke="#161A1F" stroke-width="1.4" stroke-linecap="round" stroke-linejoin="round"/>
        <path d="M3 9H21" stroke="#161A1F" stroke-width="1.4" stroke-linecap="round" stroke-linejoin="round"/>
    </symbol>

    <symbol id="bottom_arrow" viewBox="0 0 24 24">
        <path d="M15 11L12 14L9 11" stroke="#2F3741" stroke-width="2" stroke-linecap="round" stroke-linejoin="round"/>
    </symbol>

</svg>


